<svg xmlns="http://www.w3.org/2000/svg" width="360" height="580" style="background: rgb(5, 10, 20); font-family: system-ui,-apple-system,sans-serif;"><rect x="4" y="4" width="352" height="572" rx="32" fill="#07090d" stroke="#1c1c1e" stroke-width="2.5"></rect><rect x="156" y="14" width="48" height="5" rx="2.5" fill="#1c1c1e"></rect><text x="34" y="36" fill="rgba(255,255,255,.3)" font-size="9">9:41</text><text x="326" y="36" text-anchor="end" fill="rgba(255,255,255,.3)" font-size="9">Load</text><text x="34" y="56" fill="rgba(255,255,255,.52)" font-size="8.5" font-weight="600" letter-spacing="1.2">WEEKLY PERFORMANCE</text><text x="34" y="74" fill="rgba(255,255,255,.35)" font-size="7.5" letter-spacing="0.8">PERFORMANCE SCORE</text><text x="34" y="112" fill="#38bdf8" font-size="44" font-weight="600">82</text><text x="326" y="74" text-anchor="end" fill="rgba(255,255,255,.35)" font-size="7.5" letter-spacing="0.8">TRAINING LOAD</text><text x="326" y="112" text-anchor="end" fill="#38bdf8" font-size="32" font-weight="600">720</text><text x="326" y="128" text-anchor="end" fill="#fb923c" font-size="8.5" font-weight="500">+32% vs last wk</text><line x1="34" y1="136" x2="326" y2="136" stroke="rgba(255,255,255,.07)" stroke-width="0.5"></line><rect x="26" y="144" width="308" height="238" rx="9" fill="rgba(255,255,255,.04)"></rect><text x="38" y="162" fill="rgba(255,255,255,.35)" font-size="7.5" letter-spacing="0.8">DAILY STRAIN</text><line x1="36" y1="208" x2="324" y2="208" stroke="rgba(255,255,255,.08)" stroke-width="0.5"></line><line x1="36" y1="289" x2="324" y2="289" stroke="rgba(255,255,255,.05)" stroke-width="0.5"></line><line x1="36" y1="370" x2="324" y2="370" stroke="rgba(255,255,255,.14)" stroke-width="0.5"></line><rect x="42.17142857142857" y="295.48" width="28.8" height="74.52" rx="2" fill="rgba(56,189,248,.35)"></rect><text x="56.57142857142857" y="290.48" text-anchor="middle" fill="rgba(255,255,255,.3)" font-size="6.5">9.2</text><text x="56.57142857142857" y="384" text-anchor="middle" fill="rgba(255,255,255,.28)" font-size="7" font-weight="400">M</text><rect x="83.31428571428572" y="269.56" width="28.8" height="100.44" rx="2" fill="rgba(56,189,248,.35)"></rect><text x="97.71428571428572" y="264.56" text-anchor="middle" fill="rgba(255,255,255,.3)" font-size="6.5">12.4</text><text x="97.71428571428572" y="384" text-anchor="middle" fill="rgba(255,255,255,.28)" font-size="7" font-weight="400">T</text><rect x="124.45714285714287" y="331.12" width="28.8" height="38.879999999999995" rx="2" fill="rgba(56,189,248,.35)"></rect><text x="138.85714285714286" y="326.12" text-anchor="middle" fill="rgba(255,255,255,.3)" font-size="6.5">4.8</text><text x="138.85714285714286" y="384" text-anchor="middle" fill="rgba(255,255,255,.28)" font-size="7" font-weight="400">W</text><rect x="165.60000000000002" y="223.39" width="28.8" height="146.61" rx="2" fill="#7df4ff"></rect><text x="170.00000000000003" y="218.39" text-anchor="end" fill="#ffffff" font-size="7" font-weight="700">18.1</text><text x="172.00000000000003" y="218.39" text-anchor="start" fill="#7df4ff" font-size="7" font-weight="700">← Peak</text><text x="180.00000000000003" y="384" text-anchor="middle" fill="#7df4ff" font-size="7" font-weight="600">T</text><rect x="206.74285714285716" y="284.14" width="28.8" height="85.86" rx="2" fill="rgba(56,189,248,.35)"></rect><text x="221.14285714285717" y="279.14" text-anchor="middle" fill="rgba(255,255,255,.3)" font-size="6.5">10.6</text><text x="221.14285714285717" y="384" text-anchor="middle" fill="rgba(255,255,255,.28)" font-size="7" font-weight="400">F</text><rect x="247.8857142857143" y="306.82" width="28.8" height="63.18" rx="2" fill="rgba(56,189,248,.35)"></rect><text x="262.2857142857143" y="301.82" text-anchor="middle" fill="rgba(255,255,255,.3)" font-size="6.5">7.8</text><text x="262.2857142857143" y="384" text-anchor="middle" fill="rgba(255,255,255,.28)" font-size="7" font-weight="400">S</text><rect x="289.02857142857147" y="333.55" width="28.8" height="36.45" rx="2" fill="rgba(56,189,248,.35)"></rect><text x="303.42857142857144" y="328.55" text-anchor="middle" fill="rgba(255,255,255,.3)" font-size="6.5">4.5</text><text x="303.42857142857144" y="384" text-anchor="middle" fill="rgba(255,255,255,.28)" font-size="7" font-weight="400">S</text><line x1="34" y1="396" x2="326" y2="396" stroke="rgba(255,255,255,.07)" stroke-width="0.5"></line><text x="34" y="414" fill="rgba(255,255,255,.52)" font-size="8.5" font-weight="600" letter-spacing="1.2">WEEKLY SUMMARY</text><rect x="34" y="422" width="97.33333333333333" height="72" rx="9" fill="rgba(255,255,255,.05)"></rect><text x="82.66666666666666" y="444" text-anchor="middle" fill="#38bdf8" font-size="16" font-weight="600">75</text><text x="82.66666666666666" y="458" text-anchor="middle" fill="rgba(255,255,255,.35)" font-size="7">Avg recovery</text><rect x="42" y="466" width="81.33333333333333" height="3" rx="1.5" fill="rgba(255,255,255,.07)"></rect><rect x="42" y="466" width="61" height="3" rx="1.5" fill="#38bdf8"></rect><text x="82.66666666666666" y="482" text-anchor="middle" fill="rgba(255,255,255,.18)" font-size="6" font-family="monospace">/ 100</text><rect x="137.33333333333331" y="422" width="97.33333333333333" height="72" rx="9" fill="rgba(255,255,255,.05)"></rect><text x="185.99999999999997" y="444" text-anchor="middle" fill="#38bdf8" font-size="16" font-weight="600">82%</text><text x="185.99999999999997" y="458" text-anchor="middle" fill="rgba(255,255,255,.35)" font-size="7">Completion</text><rect x="145.33333333333331" y="466" width="81.33333333333333" height="3" rx="1.5" fill="rgba(255,255,255,.07)"></rect><rect x="145.33333333333331" y="466" width="66.69333333333333" height="3" rx="1.5" fill="#38bdf8"></rect><text x="185.99999999999997" y="482" text-anchor="middle" fill="rgba(255,255,255,.18)" font-size="6" font-family="monospace">/ 100%</text><rect x="240.66666666666666" y="422" width="97.33333333333333" height="72" rx="9" fill="rgba(255,255,255,.05)"></rect><text x="289.3333333333333" y="444" text-anchor="middle" fill="#38bdf8" font-size="12" font-weight="600">7h 10m</text><text x="289.3333333333333" y="458" text-anchor="middle" fill="rgba(255,255,255,.35)" font-size="7">Avg sleep</text><rect x="248.66666666666666" y="466" width="81.33333333333333" height="3" rx="1.5" fill="rgba(255,255,255,.07)"></rect><rect x="248.66666666666666" y="466" width="58.559999999999995" height="3" rx="1.5" fill="#38bdf8"></rect><text x="289.3333333333333" y="482" text-anchor="middle" fill="rgba(255,255,255,.18)" font-size="6" font-family="monospace">/ 10h</text><rect x="34" y="506" width="292" height="36" rx="9" fill="rgba(251,146,60,.08)" stroke="rgba(251,146,60,.25)" stroke-width="0.5"></rect><circle cx="46" cy="524" r="3.5" fill="#fb923c"></circle><text x="56" y="528" fill="#fde68a" font-size="7.5" font-weight="600">Load spike detected — consider a recovery day this week.</text></svg>